<mxfile host="Electron" agent="Mozilla/5.0 (Windows NT 10.0; Win64; x64) AppleWebKit/537.36 (KHTML, like Gecko) draw.io/24.7.17 Chrome/128.0.6613.36 Electron/32.0.1 Safari/537.36" version="24.7.17">
  <diagram name="Página-1" id="193nzEhfiWy_e9zowea9">
    <mxGraphModel dx="1050" dy="621" grid="1" gridSize="10" guides="1" tooltips="1" connect="1" arrows="1" fold="1" page="1" pageScale="1" pageWidth="827" pageHeight="1169" math="0" shadow="0">
      <root>
        <mxCell id="0" />
        <mxCell id="1" parent="0" />
        <mxCell id="YSw02RpVb0XIWaGZ6UCB-1" value="" style="group" parent="1" vertex="1" connectable="0">
          <mxGeometry x="520" y="80" width="190" height="160" as="geometry" />
        </mxCell>
        <mxCell id="YSw02RpVb0XIWaGZ6UCB-2" value="" style="strokeWidth=2;html=1;shape=mxgraph.flowchart.database;whiteSpace=wrap;fillColor=#f8cecc;strokeColor=#b85450;" parent="YSw02RpVb0XIWaGZ6UCB-1" vertex="1">
          <mxGeometry width="190" height="160" as="geometry" />
        </mxCell>
        <mxCell id="YSw02RpVb0XIWaGZ6UCB-3" value="&lt;b&gt;Base de datos&lt;/b&gt;&lt;div&gt;[Software: BD relacional]&lt;/div&gt;&lt;div&gt;&lt;i&gt;&lt;font style=&quot;font-size: 10px;&quot;&gt;Contiene todos los productos, los pedidos, detalles, usuarios, empleados, etc.&lt;/font&gt;&lt;/i&gt;&lt;/div&gt;" style="text;html=1;align=center;verticalAlign=middle;whiteSpace=wrap;rounded=0;" parent="YSw02RpVb0XIWaGZ6UCB-1" vertex="1">
          <mxGeometry x="10" y="50" width="170" height="100" as="geometry" />
        </mxCell>
        <mxCell id="Id9sQiVNWBOx5Ti9EZYD-1" value="&lt;font style=&quot;font-size: 14px;&quot;&gt;«Titulo»&lt;/font&gt;&lt;br&gt;&lt;b&gt;[Software: ]&lt;/b&gt;&lt;div&gt;&lt;i&gt;Descrición&lt;/i&gt;&lt;/div&gt;" style="html=1;whiteSpace=wrap;" vertex="1" parent="1">
          <mxGeometry x="180" y="330" width="110" height="50" as="geometry" />
        </mxCell>
        <mxCell id="Id9sQiVNWBOx5Ti9EZYD-2" value="&lt;font style=&quot;font-size: 14px;&quot;&gt;«Titulo»&lt;/font&gt;&lt;br&gt;&lt;b&gt;[Software: ]&lt;/b&gt;&lt;div&gt;Descripción&lt;/div&gt;" style="html=1;whiteSpace=wrap;dashed=1;dashPattern=12 12;strokeWidth=2;fillColor=#fff2cc;strokeColor=#d6b656;rounded=1;glass=0;shadow=0;fixedWidth=1;resizeHeight=1;resizeWidth=1;" vertex="1" parent="1">
          <mxGeometry x="590" y="330" width="110" height="50" as="geometry" />
        </mxCell>
      </root>
    </mxGraphModel>
  </diagram>
</mxfile>
